<svg width="25" height="24" viewBox="0 0 25 24" fill="none" xmlns="http://www.w3.org/2000/svg">
<path d="M24.9 12C24.9 18.6274 19.5274 24 12.9 24C6.27261 24 0.900024 18.6274 0.900024 12C0.900024 5.37258 6.27261 0 12.9 0C19.5274 0 24.9 5.37258 24.9 12Z" fill="#EF9999"/>
<path fill-rule="evenodd" clip-rule="evenodd" d="M12.9 23.7073C19.3658 23.7073 24.6073 18.4658 24.6073 12C24.6073 5.53423 19.3658 0.292683 12.9 0.292683C6.43425 0.292683 1.19271 5.53423 1.19271 12C1.19271 18.4658 6.43425 23.7073 12.9 23.7073ZM12.9 24C19.5274 24 24.9 18.6274 24.9 12C24.9 5.37258 19.5274 0 12.9 0C6.27261 0 0.900024 5.37258 0.900024 12C0.900024 18.6274 6.27261 24 12.9 24Z" fill="#BC7F7F"/>
<path d="M18.6518 7.58895C18.7176 7.40077 18.8211 7.25964 18.9623 7.16555C19.1128 7.07146 19.2775 7.02441 19.4562 7.02441C19.6821 7.02441 19.8749 7.09498 20.0349 7.23611C20.2042 7.37725 20.2889 7.56542 20.2889 7.80064C20.2889 7.88532 20.2654 8.00764 20.2184 8.16759L17.184 16.565C17.1087 16.7532 16.9817 16.899 16.8029 17.0025C16.6336 17.106 16.4454 17.1577 16.2384 17.1577C16.0314 17.1577 15.8385 17.106 15.6598 17.0025C15.481 16.899 15.3587 16.7532 15.2928 16.565L12.95 9.91764L10.5649 16.565C10.4896 16.7532 10.3626 16.899 10.1838 17.0025C10.0145 17.106 9.82628 17.1577 9.61928 17.1577C9.41229 17.1577 9.21941 17.106 9.04064 17.0025C8.87128 16.899 8.75367 16.7532 8.68781 16.565L5.65345 8.16759C5.60641 8.02646 5.58289 7.90414 5.58289 7.80064C5.58289 7.56542 5.66757 7.37725 5.83692 7.23611C6.01569 7.09498 6.22269 7.02441 6.45791 7.02441C6.64609 7.02441 6.81545 7.07146 6.96599 7.16555C7.11653 7.25964 7.22473 7.40077 7.29059 7.58895L9.68985 14.4903L12.1597 7.63128C12.2255 7.44311 12.3337 7.29727 12.4843 7.19377C12.6348 7.08087 12.7995 7.02441 12.9782 7.02441C13.157 7.02441 13.3217 7.08087 13.4722 7.19377C13.6322 7.29727 13.7451 7.44781 13.8109 7.6454L16.2102 14.575L18.6518 7.58895Z" fill="#3F3B3B"/>
</svg>
