<svg width="26" height="24" viewBox="0 0 26 24" fill="none" xmlns="http://www.w3.org/2000/svg">
<path d="M25.8446 12C25.8446 18.6274 20.2771 24 13.4093 24C6.54153 24 0.974091 18.6274 0.974091 12C0.974091 5.37258 6.54153 0 13.4093 0C20.2771 0 25.8446 5.37258 25.8446 12Z" fill="#99EAEF"/>
<path fill-rule="evenodd" clip-rule="evenodd" d="M13.4093 23.7073C20.1096 23.7073 25.5413 18.4658 25.5413 12C25.5413 5.53423 20.1096 0.292683 13.4093 0.292683C6.70904 0.292683 1.27739 5.53423 1.27739 12C1.27739 18.4658 6.70904 23.7073 13.4093 23.7073ZM13.4093 24C20.2771 24 25.8446 18.6274 25.8446 12C25.8446 5.37258 20.2771 0 13.4093 0C6.54153 0 0.974091 5.37258 0.974091 12C0.974091 18.6274 6.54153 24 13.4093 24Z" fill="#7EBABD"/>
<path d="M17.915 6.8999C18.2078 6.8999 18.4432 6.98694 18.621 7.16102C18.7988 7.32543 18.8877 7.54786 18.8877 7.82832V16.4162C18.8877 16.687 18.8041 16.8997 18.6367 17.0545C18.4693 17.2092 18.2497 17.2866 17.9777 17.2866C17.7058 17.2866 17.4913 17.2092 17.3344 17.0545C17.1775 16.8997 17.0991 16.687 17.0991 16.4162V10.4395L14.4318 15.1106C14.3062 15.3234 14.1703 15.4829 14.0238 15.5893C13.8774 15.686 13.7048 15.7344 13.5061 15.7344C13.3073 15.7344 13.1347 15.686 12.9883 15.5893C12.8418 15.4926 12.7059 15.333 12.5803 15.1106L9.89734 10.512V16.4162C9.89734 16.6773 9.81366 16.8901 9.6463 17.0545C9.4894 17.2092 9.27496 17.2866 9.003 17.2866C8.73104 17.2866 8.51661 17.2092 8.35971 17.0545C8.20281 16.8997 8.12436 16.687 8.12436 16.4162V7.82832C8.12436 7.54786 8.20804 7.32543 8.3754 7.16102C8.55322 6.98694 8.78857 6.8999 9.08145 6.8999C9.4894 6.8999 9.80843 7.10783 10.0385 7.52368L13.5217 13.6599L16.9892 7.52368C17.2194 7.10783 17.5279 6.8999 17.915 6.8999Z" fill="#3B3F3F"/>
</svg>
