<svg width="40" height="40" viewBox="0 0 40 40" fill="none" xmlns="http://www.w3.org/2000/svg">
<g clip-path="url(#clip0)">
<path d="M35.4834 11.4042H4.51657C2.02614 11.4042 0 9.37811 0 6.88767C0 4.39723 2.02614 2.37109 4.51657 2.37109H35.4835C37.9739 2.37109 40 4.39723 40 6.88767C40 9.37811 37.9739 11.4042 35.4834 11.4042ZM4.51657 3.96472C2.90486 3.96472 1.59363 5.27595 1.59363 6.88767C1.59363 8.49938 2.90486 9.81062 4.51657 9.81062H35.4835C37.0952 9.81062 38.4065 8.49938 38.4065 6.88767C38.4065 5.27595 37.0951 3.96472 35.4834 3.96472H4.51657Z" fill="#3B3F3F"/>
<path d="M35.4834 24.5165H4.51657C2.02614 24.5165 0 22.4904 0 20C0 17.5095 2.02614 15.4834 4.51657 15.4834H35.4835C37.9739 15.4834 40 17.5095 40 20C40 22.4904 37.9739 24.5165 35.4834 24.5165ZM4.51657 17.077C2.90486 17.077 1.59363 18.3883 1.59363 20C1.59363 21.6117 2.90486 22.9229 4.51657 22.9229H35.4835C37.0951 22.9229 38.4064 21.6117 38.4064 20C38.4064 18.3883 37.0951 17.077 35.4834 17.077H4.51657Z" fill="#3B3F3F"/>
<path d="M35.4834 37.6284H4.51657C2.02614 37.6284 0 35.6022 0 33.1118C0 30.6214 2.02614 28.5952 4.51657 28.5952H35.4835C37.9739 28.5952 40.0001 30.6214 40.0001 33.1118C40 35.6022 37.9739 37.6284 35.4834 37.6284ZM4.51657 30.1888C2.90486 30.1888 1.59363 31.5001 1.59363 33.1118C1.59363 34.7235 2.90486 36.0347 4.51657 36.0347H35.4835C37.0952 36.0347 38.4065 34.7235 38.4065 33.1118C38.4065 31.5001 37.0952 30.1888 35.4835 30.1888H4.51657Z" fill="#3B3F3F"/>
<path d="M18.3726 6.94031H4.60956C4.16948 6.94031 3.81274 6.58357 3.81274 6.14349C3.81274 5.70341 4.16948 5.34668 4.60956 5.34668H18.3726C18.8127 5.34668 19.1694 5.70341 19.1694 6.14349C19.1694 6.58357 18.8127 6.94031 18.3726 6.94031Z" fill="#3B3F3F"/>
<path d="M23.6732 6.94031H22.0923C21.6523 6.94031 21.2955 6.58357 21.2955 6.14349C21.2955 5.70341 21.6523 5.34668 22.0923 5.34668H23.6732C24.1133 5.34668 24.47 5.70341 24.47 6.14349C24.47 6.58357 24.1133 6.94031 23.6732 6.94031Z" fill="#3B3F3F"/>
</g>
<defs>
<clipPath id="clip0">
<rect width="40" height="40" fill="white"/>
</clipPath>
</defs>
</svg>
