<svg width="40" height="40" viewBox="0 0 40 40" fill="none" xmlns="http://www.w3.org/2000/svg">
<path d="M10.8974 24.2051L25.1353 24.2051L24.2883 29.7954C24.2258 30.2082 24.4198 30.618 24.779 30.8311C25.1383 31.044 25.5908 31.0182 25.9233 30.7654L39.0055 20.8164C39.2605 20.6223 39.4102 20.3204 39.4102 20C39.4102 19.6796 39.2605 19.3776 39.0055 19.1836L25.9233 9.23449C25.7407 9.09574 25.5219 9.02527 25.3022 9.02527C25.1226 9.02527 24.9423 9.07238 24.7809 9.1677C24.4219 9.37957 24.2269 9.7877 24.2876 10.2001L25.1405 16L10.8975 16C10.3312 16 9.9231 16.4593 9.9231 17.0256V23.1794C9.92302 23.7458 10.3311 24.2051 10.8974 24.2051Z" fill="#3B3F3F"/>
<path d="M3.66139 40H30.4873C31.0536 40 31.5642 39.5407 31.5642 38.9744V34.8718C31.5642 34.3055 31.0537 33.8462 30.4873 33.8462H6.74366L6.74366 6.15383H30.4873C31.0536 6.15383 31.5642 5.69453 31.5642 5.1282V1.02562C31.5642 0.459296 31.0537 -1.43051e-06 30.4873 -1.43051e-06H3.66139C1.93944 -1.43051e-06 0.589834 1.38031 0.589834 3.07695L0.589834 36.923C0.589834 38.6197 1.93944 40 3.66139 40Z" fill="#3B3F3F"/>
</svg>
