<svg  viewBox="0 0 32 32" fill="none" xmlns="http://www.w3.org/2000/svg">
<path d="M19.375 11.875C19.03 11.875 18.75 12.155 18.75 12.5C18.75 12.845 19.03 13.125 19.375 13.125C19.72 13.125 20 12.845 20 12.5C20 12.155 19.72 11.875 19.375 11.875Z" fill="#3B3F3F"/>
<path d="M31.2676 27.7324L22.9251 19.3899C24.2841 17.3428 25 14.9722 25 12.5C25 5.6075 19.3925 0 12.5 0C5.6075 0 0 5.6075 0 12.5C0 19.3925 5.6075 25 12.5 25C14.9722 25 17.3429 24.2841 19.3899 22.9251L21.6959 25.2311C21.6962 25.2314 21.6965 25.2317 21.6969 25.2321L27.7324 31.2676C28.2048 31.7399 28.8324 32 29.5 32C30.1676 32 30.7953 31.7399 31.2674 31.2677C31.7398 30.7957 32 30.1679 32 29.5C32 28.8321 31.7398 28.2043 31.2676 27.7324ZM19.096 21.6079C19.096 21.608 19.0959 21.608 19.0959 21.6081C17.1667 23.0093 14.8859 23.75 12.5 23.75C6.29675 23.75 1.25 18.7033 1.25 12.5C1.25 6.29675 6.29675 1.25 12.5 1.25C18.7033 1.25 23.75 6.29675 23.75 12.5C23.75 14.8859 23.0093 17.1667 21.608 19.0959C20.9069 20.0618 20.0618 20.9069 19.096 21.6079ZM20.4072 22.1746C21.0541 21.6454 21.6454 21.0541 22.1746 20.4072L23.9478 22.1804C23.4085 22.8169 22.8169 23.4086 22.1804 23.9478L20.4072 22.1746ZM30.3837 30.3837C30.1474 30.6199 29.8336 30.75 29.5 30.75C29.1664 30.75 28.8526 30.6199 28.6163 30.3837L23.0666 24.834C23.6996 24.2908 24.2908 23.6996 24.8339 23.0667L30.3838 28.6166C30.6199 28.8524 30.75 29.1661 30.75 29.5C30.75 29.8339 30.6199 30.1476 30.3837 30.3837Z" fill="#3B3F3F"/>
<path d="M12.5 2.5C6.98594 2.5 2.5 6.98594 2.5 12.5C2.5 18.0141 6.98594 22.5 12.5 22.5C18.0141 22.5 22.5 18.0141 22.5 12.5C22.5 6.98594 18.0141 2.5 12.5 2.5ZM12.5 21.25C7.67525 21.25 3.75 17.3247 3.75 12.5C3.75 7.67525 7.67525 3.75 12.5 3.75C17.3247 3.75 21.25 7.67525 21.25 12.5C21.25 17.3247 17.3247 21.25 12.5 21.25Z" fill="#3B3F3F"/>
<path d="M19.5041 9.81706C18.9659 8.41631 18.0288 7.21869 16.7941 6.35375C15.5299 5.46813 14.0451 5 12.5 5C12.1549 5 11.875 5.27988 11.875 5.625C11.875 5.97012 12.1549 6.25 12.5 6.25C15.0687 6.25 17.4144 7.86362 18.3373 10.2654C18.4328 10.5139 18.6696 10.6664 18.9208 10.6664C18.9953 10.6664 19.0711 10.653 19.1448 10.6247C19.467 10.5009 19.6279 10.1393 19.5041 9.81706Z" fill="#3B3F3F"/>
</svg>
