<svg width="245" height="245" viewBox="0 0 245 245" fill="none" xmlns="http://www.w3.org/2000/svg">
<path d="M112.662 182.822C110.629 182.822 108.793 181.488 108.134 179.573C107.474 177.656 108.15 175.476 109.749 174.24C111.289 173.051 113.455 172.943 115.121 173.934C116.838 174.956 117.74 177.014 117.351 178.969C116.912 181.179 114.915 182.822 112.662 182.822Z" fill="#3B3F3F"/>
<path fill-rule="evenodd" clip-rule="evenodd" d="M132.154 29.0756V19.5809C132.154 8.78411 123.371 0 112.574 0C101.777 0 92.9927 8.78363 92.9927 19.5809V29.0751C63.1319 37.6123 41.2092 65.1705 41.2092 97.756V119.52C41.2092 133.559 39.5124 147.59 36.1656 161.221L33.2108 173.257C22.2289 173.535 13.3811 182.555 13.3811 193.614C13.3811 204.837 22.5112 213.967 33.7338 213.967H82.9142V215.34C82.9142 231.694 96.2193 245 112.574 245C128.929 245 142.234 231.694 142.234 215.34V213.967H191.414C202.636 213.967 211.766 204.837 211.766 193.603C211.766 182.555 202.918 173.535 191.937 173.257L188.982 161.221C185.63 147.59 184.636 133.56 183.93 119.52C183.93 119.52 183.97 103.83 184 98.09C184.03 65.5 162.01 37.61 132.154 29.0756ZM112.574 9.57031C107.054 9.57031 102.563 14.0612 102.563 19.5809V27.0428C105.835 26.5811 109.177 26.3423 112.574 26.3423C115.934 26.3423 119.279 26.5796 122.584 27.0467V19.5809C122.584 14.0612 118.093 9.57031 112.574 9.57031ZM112.574 235.43C123.651 235.43 132.664 226.418 132.664 215.341V213.967H92.4845V215.341C92.4845 226.418 101.497 235.43 112.574 235.43ZM191.414 204.397C197.359 204.397 202.196 199.56 202.196 193.614C202.196 187.658 197.359 182.821 191.413 182.821H188.268C188.238 182.821 188.208 182.822 188.179 182.822C188.151 182.822 188.124 182.821 188.097 182.821H188.095L188.091 182.821H134.205C131.563 182.821 129.42 180.678 129.42 178.036C129.42 175.393 131.563 173.25 134.205 173.25H182.08L179.687 163.504C176.15 149.13 174.36 134.33 174.36 119.52V97.76C174.36 63.66 146.64 35.9126 112.574 35.9126C78.5004 35.9126 50.7795 63.655 50.7795 97.756V119.52C50.7795 134.327 48.9894 149.125 45.4594 163.504L43.0668 173.25H90.9418C93.5846 173.25 95.7269 175.393 95.7269 178.035C95.7269 180.678 93.5846 182.82 90.9418 182.82H37.0557C37.0265 182.821 36.9978 182.821 36.9686 182.821C36.9389 182.821 36.9088 182.821 36.8791 182.82H33.7333C27.7878 182.82 22.9509 187.657 22.9509 193.603C22.9509 199.56 27.7878 204.397 33.7333 204.397H191.414Z" fill="#3B3F3F"/>
</svg>
