<svg width="245" height="245" viewBox="0 0 245 245" fill="none" xmlns="http://www.w3.org/2000/svg">
<rect width="245" height="245" fill="#E5E5E5"/>
<rect width="1920" height="4871" transform="translate(-394 -2070)" fill="white"/>
<path d="M112.28 182.822C110.248 182.822 108.412 181.488 107.753 179.573C107.093 177.656 107.769 175.476 109.368 174.24C110.908 173.051 113.074 172.943 114.74 173.934C116.456 174.956 117.358 177.014 116.97 178.969C116.531 181.179 114.534 182.822 112.28 182.822Z" fill="#3B3F3F"/>
<path d="M181.618 152C162.902 152 145.997 139.724 139.93 122.096C133.855 104.446 140.08 84.3816 154.804 73.0039C168.982 62.0535 188.923 61.0624 204.26 70.1892C220.068 79.5979 228.373 98.5387 224.795 116.537C220.755 136.878 202.365 152 181.618 152Z" fill="#F47777"/>
<path d="M231.238 108.435C231.238 80.7146 208.69 58.1631 180.976 58.1631C177.951 58.1631 174.987 58.432 172.107 58.9469C165.993 49.5144 157.691 41.5974 147.963 35.9485C142.863 32.987 137.42 30.6834 131.773 29.0756V19.5809C131.773 8.78411 122.99 0 112.192 0C101.396 0 92.6116 8.78363 92.6116 19.5809V29.0751C62.7508 37.6123 40.8281 65.1705 40.8281 97.756V119.52C40.8281 133.559 39.1313 147.59 35.7845 161.221L32.8297 173.257C21.8478 173.535 13 182.555 13 193.614C13 204.837 22.1301 213.967 33.3527 213.967H82.5331V215.34C82.5331 231.694 95.8383 245 112.193 245C128.548 245 141.853 231.694 141.853 215.34V213.967H191.033C202.255 213.967 211.385 204.837 211.385 193.603C211.385 182.555 202.537 173.535 191.556 173.257L188.601 161.221C188.357 160.231 188.122 159.233 187.895 158.231C212.347 154.85 231.238 133.807 231.238 108.435ZM102.182 19.5809C102.182 14.0612 106.673 9.57031 112.192 9.57031C117.712 9.57031 122.203 14.0612 122.203 19.5809V27.0467C118.898 26.5796 115.553 26.3423 112.192 26.3423C108.796 26.3423 105.454 26.5811 102.182 27.0428V19.5809ZM132.282 215.341C132.282 226.418 123.27 235.43 112.193 235.43C101.116 235.43 92.1034 226.418 92.1034 215.341V213.967H132.282V215.341ZM201.815 193.614C201.815 199.56 196.978 204.397 191.033 204.397H33.3522C27.4067 204.397 22.5698 199.56 22.5698 193.603C22.5698 187.657 27.4067 182.82 33.3522 182.82H36.498C36.5277 182.821 36.5578 182.821 36.5875 182.821C36.6167 182.821 36.6454 182.821 36.6746 182.82H90.5607C93.2036 182.82 95.3459 180.678 95.3459 178.035C95.3459 175.393 93.2036 173.25 90.5607 173.25H42.6857L45.0783 163.504C48.6083 149.125 50.3984 134.327 50.3984 119.52V97.756C50.3984 63.655 78.1193 35.9126 112.192 35.9126C132.082 35.9126 150.876 45.6815 162.412 61.717C143.859 69.1182 130.714 87.2698 130.714 108.435C130.714 135.216 151.761 157.173 178.179 158.629C178.534 160.263 178.911 161.894 179.306 163.504L181.699 173.25H133.824C131.182 173.25 129.039 175.393 129.039 178.036C129.039 180.678 131.182 182.821 133.824 182.821H187.71C187.74 182.821 187.768 182.822 187.798 182.822C187.827 182.822 187.857 182.821 187.887 182.821H191.032C196.978 182.821 201.815 187.658 201.815 193.614ZM180.976 149.136C158.539 149.136 140.285 130.877 140.285 108.435C140.285 85.9921 158.539 67.7334 180.976 67.7334C203.413 67.7334 221.667 85.9916 221.667 108.435C221.667 130.877 203.413 149.136 180.976 149.136Z" fill="#3B3F3F"/>
</svg>
